<?xml version="1.0" encoding="utf-8"?>
<!-- Generator: Adobe Illustrator 16.0.3, SVG Export Plug-In . SVG Version: 6.00 Build 0)  -->
<!DOCTYPE svg PUBLIC "-//W3C//DTD SVG 1.1//EN" "http://www.w3.org/Graphics/SVG/1.1/DTD/svg11.dtd">
<svg version="1.1" id="Vrstva_1" xmlns="http://www.w3.org/2000/svg" xmlns:xlink="http://www.w3.org/1999/xlink" x="0px" y="0px"
	 width="500px" height="300px" viewBox="0 0 500 300" enable-background="new 0 0 500 300" xml:space="preserve">
<g>
	<path fill="#FB503B" d="M154.76,236.603c-0.331,0-0.579-0.082-0.744-0.248c-0.579-0.165-1.075-0.661-0.992-1.157
		c0.165-1.488,0.413-2.894,0.826-4.216c0.166-0.662,0.744-0.91,1.323-0.744c0.495,0.082,0.743,0.744,0.661,1.24
		c-0.33,0.991-0.578,2.149-0.661,3.141h3.638c0.661,0,1.074,0.414,1.074,0.992c0,0.579-0.413,0.992-1.074,0.992H154.76z
		 M153.189,239.579c-0.165-0.661,0.248-1.157,0.909-1.157c0.496-0.083,1.075,0.33,1.075,0.826c0.165,1.405,0.495,2.563,0.909,3.886
		c0.166,0.496-0.166,1.075-0.661,1.323h-0.248c-0.413,0-0.909-0.248-0.992-0.662C153.685,242.473,153.354,241.067,153.189,239.579z
		 M155.504,226.93c0.744-1.405,1.57-2.479,2.563-3.637c0.33-0.414,0.992-0.414,1.405-0.166c0.413,0.414,0.496,1.075,0.083,1.571
		c-0.744,0.909-1.488,1.984-2.315,3.142c0,0.413-0.496,0.661-0.743,0.661c-0.248,0-0.414-0.165-0.58-0.248
		C155.421,228.005,155.173,227.426,155.504,226.93z M156.083,247.764c-0.33-0.579-0.248-1.157,0.248-1.488
		c0.578-0.248,1.157-0.083,1.488,0.331c0.578,1.157,1.405,2.149,2.397,3.142c0.413,0.413,0.331,1.074-0.083,1.487
		c-0.165,0.166-0.413,0.248-0.661,0.248s-0.661-0.082-0.827-0.248C157.736,250.161,156.744,249.004,156.083,247.764z
		 M161.292,220.399c1.156-0.91,2.479-1.571,3.803-2.232c0.496-0.248,1.156,0,1.322,0.496c0.248,0.578,0,1.157-0.496,1.405
		c-1.24,0.496-2.397,1.24-3.473,1.901c-0.165,0.165-0.33,0.248-0.578,0.248c-0.33,0-0.578-0.083-0.826-0.413
		C160.712,221.309,160.795,220.647,161.292,220.399z M162.118,253.964c-0.578-0.248-0.662-0.909-0.33-1.405
		c0.33-0.579,0.908-0.661,1.487-0.331c0.992,0.744,2.067,1.323,3.39,1.736c0.496,0.248,0.826,0.909,0.578,1.323
		c-0.082,0.495-0.496,0.743-0.908,0.743c-0.084,0-0.166-0.082-0.414-0.082C164.598,255.452,163.275,254.873,162.118,253.964z
		 M163.027,236.603c-0.579,0-1.075-0.413-1.075-0.992c0-0.578,0.496-0.992,1.075-0.992h4.134c0.661,0,1.074,0.414,1.074,0.992
		c0,0.579-0.413,0.992-1.074,0.992H163.027z M169.227,216.927c1.158-0.165,2.15-0.331,3.307-0.331c0.331,0,0.744,0,1.075,0.166
		c0.579,0,0.992,0.496,0.992,0.992c-0.083,0.661-0.496,1.074-1.157,1.074c-0.248-0.165-0.579-0.165-0.91-0.165
		c-0.992,0-1.983,0.165-2.893,0.33h-0.248c-0.496,0-0.91-0.413-0.992-0.826C168.318,217.506,168.731,217.01,169.227,216.927z
		 M169.393,255.865c0-0.578,0.496-0.992,1.074-0.992c0.662,0.166,1.406,0.166,2.066,0.166c0.662,0,1.323,0,1.819-0.166
		c0.661,0,1.075,0.414,1.075,0.992c0.165,0.579-0.248,1.157-0.827,1.157c-0.661,0.083-1.323,0.083-2.067,0.083
		c-0.826,0-1.57,0-2.396-0.083C169.641,256.857,169.227,256.361,169.393,255.865z M171.294,236.603
		c-0.496,0-0.992-0.413-0.992-0.992c0-0.578,0.496-0.992,0.992-0.992h4.134c0.661,0,1.074,0.414,1.074,0.992
		c0,0.579-0.413,0.992-1.074,0.992H171.294z M177.329,219.407c-0.496-0.166-0.826-0.744-0.578-1.24
		c0.082-0.661,0.744-0.909,1.24-0.744c1.405,0.496,2.729,0.992,4.051,1.653c0.496,0.331,0.578,0.992,0.414,1.488
		c-0.248,0.331-0.662,0.496-0.91,0.496s-0.496,0-0.578-0.083C179.809,220.399,178.569,219.82,177.329,219.407z M178.156,254.129
		c1.24-0.413,2.397-1.074,3.556-1.735c0.496-0.248,1.156-0.166,1.404,0.413c0.331,0.331,0.166,0.992-0.248,1.322
		c-1.322,0.744-2.645,1.406-3.968,1.901h-0.413c-0.414,0-0.826-0.165-0.992-0.578C177.329,254.873,177.661,254.295,178.156,254.129z
		 M179.561,236.603c-0.496,0-0.992-0.413-0.992-0.992c0-0.578,0.496-0.992,0.992-0.992h4.217c0.661,0,0.992,0.414,0.992,0.992
		c0,0.579-0.331,0.992-0.992,0.992H179.561z M184.026,223.293c-0.414-0.414-0.414-1.075,0-1.488c0.413-0.413,1.074-0.496,1.57-0.083
		c0.992,0.992,1.902,2.067,2.894,3.307c0.248,0.414,0.165,1.158-0.413,1.488c-0.166,0.083-0.414,0.166-0.578,0.166
		c-0.331,0-0.579-0.166-0.827-0.496C185.927,225.111,185.1,224.119,184.026,223.293z M184.687,249.913
		c0.909-0.909,1.819-1.984,2.48-3.142c0.331-0.331,0.909-0.579,1.487-0.248c0.414,0.248,0.579,0.909,0.331,1.405
		c-0.909,1.323-1.818,2.397-2.811,3.473c-0.083,0.248-0.413,0.33-0.744,0.33c-0.248,0-0.496-0.082-0.744-0.33
		C184.274,250.987,184.274,250.326,184.687,249.913z M187.911,236.603c-0.496,0-0.991-0.413-0.991-0.992
		c0-0.578,0.495-0.992,0.991-0.992h3.143c0.496,0,1.074,0.414,1.074,0.992c0,0.579-0.578,0.992-1.074,0.992H187.911z
		 M188.655,229.575c-0.33-0.495,0-1.074,0.496-1.322s1.158,0,1.406,0.661c0.496,1.157,0.909,2.646,1.157,4.134
		c0.165,0.496-0.165,1.075-0.744,1.24h-0.248c-0.413,0-0.909-0.413-1.075-0.827C189.482,232.056,189.069,230.815,188.655,229.575z"
		/>
	<path fill="#FB503B" d="M204.449,217.588c0-0.496,0.413-1.074,1.075-1.074c0.496,0,1.074,0.578,1.074,1.074v4.299
		c0,0.662-0.578,1.075-1.074,1.075c-0.662,0-1.075-0.413-1.075-1.075V217.588z M204.449,226.187c0-0.579,0.413-1.158,1.075-1.158
		c0.496,0,1.074,0.579,1.074,1.158v4.216c0,0.661-0.578,1.075-1.074,1.075c-0.662,0-1.075-0.414-1.075-1.075V226.187z
		 M204.449,237.182v-0.083v-2.397c0-0.578,0.413-1.074,1.075-1.074h0.165c0.083-0.166,0.248-0.414,0.331-0.662
		c0.165-0.578,0.744-0.826,1.323-0.578c0.578,0.165,0.826,0.826,0.66,1.405c-0.826,1.818-1.239,3.059-1.405,3.555V239
		c0,0.579-0.578,0.992-1.074,0.992c-0.662,0-1.075-0.413-1.075-0.992V237.182z M204.449,243.217c0-0.579,0.413-1.075,1.075-1.075
		c0.496,0,1.074,0.496,1.074,1.075v4.299c0,0.578-0.578,1.074-1.074,1.074c-0.662,0-1.075-0.496-1.075-1.074V243.217z
		 M204.449,251.814c0-0.579,0.413-1.157,1.075-1.157c0.496,0,1.074,0.578,1.074,1.157v4.216c0,0.662-0.578,1.075-1.074,1.075
		c-0.662,0-1.075-0.413-1.075-1.075V251.814z M207.921,229.08c0.744-1.323,1.488-2.646,2.398-3.804
		c0.33-0.496,0.992-0.578,1.488-0.248c0.412,0.414,0.578,0.992,0.248,1.571c-0.828,1.157-1.572,2.314-2.232,3.39
		c-0.248,0.413-0.496,0.661-0.992,0.661c-0.166,0-0.332-0.165-0.496-0.248C207.757,230.237,207.673,229.493,207.921,229.08z
		 M213.212,221.887c1.074-0.909,2.314-1.901,3.555-2.811c0.496-0.165,1.158-0.083,1.488,0.496c0.33,0.413,0.082,1.157-0.33,1.405
		c-1.158,0.661-2.232,1.571-3.225,2.563c-0.166,0.165-0.578,0.248-0.744,0.248c-0.33,0-0.496-0.083-0.744-0.248
		C212.8,223.045,212.8,222.301,213.212,221.887z M220.902,217.34c1.404-0.413,2.893-0.661,4.463-0.826
		c0.58,0,1.076,0.578,1.076,1.074c0,0.662-0.414,1.075-1.076,1.075c-1.322,0.165-2.645,0.33-3.885,0.661
		c0,0-0.166,0.083-0.248,0.083c-0.496,0-0.992-0.331-1.074-0.827C219.992,218.084,220.24,217.506,220.902,217.34z"/>
	<path fill="#FB503B" d="M240.744,217.588c0-0.496,0.414-1.074,1.076-1.074c0.496,0,1.074,0.578,1.074,1.074v4.299
		c0,0.662-0.578,1.075-1.074,1.075c-0.662,0-1.076-0.413-1.076-1.075V217.588z M240.744,226.187c0-0.579,0.414-1.158,1.076-1.158
		c0.496,0,1.074,0.579,1.074,1.158v4.216c0,0.661-0.578,1.075-1.074,1.075c-0.662,0-1.076-0.414-1.076-1.075V226.187z
		 M240.744,237.182v-0.083v-2.397c0-0.578,0.414-1.074,1.076-1.074h0.164c0.084-0.166,0.248-0.414,0.332-0.662
		c0.164-0.578,0.742-0.826,1.322-0.578c0.578,0.165,0.826,0.826,0.66,1.405c-0.826,1.818-1.24,3.059-1.404,3.555V239
		c0,0.579-0.578,0.992-1.074,0.992c-0.662,0-1.076-0.413-1.076-0.992V237.182z M240.744,243.217c0-0.579,0.414-1.075,1.076-1.075
		c0.496,0,1.074,0.496,1.074,1.075v4.299c0,0.578-0.578,1.074-1.074,1.074c-0.662,0-1.076-0.496-1.076-1.074V243.217z
		 M240.744,251.814c0-0.579,0.414-1.157,1.076-1.157c0.496,0,1.074,0.578,1.074,1.157v4.216c0,0.662-0.578,1.075-1.074,1.075
		c-0.662,0-1.076-0.413-1.076-1.075V251.814z M244.216,229.08c0.744-1.323,1.488-2.646,2.398-3.804
		c0.33-0.496,0.992-0.578,1.486-0.248c0.414,0.414,0.58,0.992,0.248,1.571c-0.826,1.157-1.57,2.314-2.23,3.39
		c-0.248,0.413-0.496,0.661-0.992,0.661c-0.166,0-0.332-0.165-0.496-0.248C244.05,230.237,243.968,229.493,244.216,229.08z
		 M249.507,221.887c1.074-0.909,2.317-1.901,3.557-2.811c0.496-0.165,1.156-0.083,1.488,0.496c0.33,0.413,0.082,1.157-0.332,1.405
		c-1.156,0.661-2.232,1.571-3.225,2.563c-0.166,0.165-0.578,0.248-0.744,0.248c-0.33,0-0.496-0.083-0.744-0.248
		C249.093,223.045,249.093,222.301,249.507,221.887z M257.197,217.34c1.406-0.413,2.895-0.661,4.465-0.826
		c0.578,0,1.074,0.578,1.074,1.074c0,0.662-0.414,1.075-1.074,1.075c-1.322,0.165-2.646,0.33-3.887,0.661
		c0,0-0.164,0.083-0.248,0.083c-0.496,0-0.992-0.331-1.074-0.827C256.287,218.084,256.535,217.506,257.197,217.34z"/>
	<path fill="#FB503B" d="M273.072,236.851c0-1.24,0.084-2.563,0.414-3.803c0.082-0.496,0.66-0.992,1.156-0.909
		c0.662,0.165,0.91,0.661,0.828,1.322c-0.166,1.157-0.332,2.232-0.332,3.39c0,0.248,0,0.331,0,0.414
		c0,0.661-0.412,1.157-0.908,1.157c-0.084,0-0.084,0-0.084,0c-0.578,0-1.074-0.496-1.074-1.075
		C273.072,237.182,273.072,237.099,273.072,236.851z M273.568,241.729c-0.082-0.579,0.33-1.075,0.826-1.24
		c0.496-0.248,1.158,0.165,1.24,0.744c0.332,1.323,0.744,2.563,1.24,3.721c0.332,0.495,0,1.157-0.496,1.322
		c-0.082,0.165-0.164,0.165-0.412,0.165c-0.414,0-0.662-0.248-0.91-0.661C274.395,244.539,273.982,243.134,273.568,241.729z
		 M274.643,228.832c0.662-1.323,1.24-2.646,2.068-3.804c0.33-0.578,1.074-0.578,1.488-0.33c0.496,0.33,0.578,0.909,0.248,1.488
		c-0.662,0.991-1.324,2.149-1.82,3.389c-0.248,0.414-0.578,0.744-0.992,0.744c-0.164,0-0.33-0.082-0.33-0.082
		C274.727,229.989,274.395,229.41,274.643,228.832z M277.371,249.5c-0.496-0.414-0.33-0.992,0.166-1.406
		c0.414-0.33,0.992-0.247,1.406,0.166c0.742,1.074,1.734,1.984,2.727,2.976c0.414,0.248,0.414,0.91,0.166,1.406
		c-0.248,0.165-0.578,0.33-0.91,0.33c-0.164,0-0.412-0.165-0.578-0.165C279.189,251.814,278.199,250.822,277.371,249.5z
		 M279.604,221.722c1.074-1.074,2.232-1.901,3.555-2.646c0.414-0.248,1.158-0.083,1.322,0.331c0.332,0.496,0.084,1.157-0.33,1.488
		c-1.156,0.578-2.148,1.405-3.225,2.231c-0.164,0.248-0.412,0.331-0.578,0.331c-0.33,0-0.662-0.083-0.826-0.331
		C279.189,222.714,279.189,222.135,279.604,221.722z M283.986,255.121c-0.58-0.248-0.744-0.826-0.58-1.322
		c0.332-0.496,0.992-0.744,1.488-0.496c1.158,0.578,2.398,0.992,3.639,1.322c0.66,0.083,0.992,0.662,0.826,1.24
		c-0.082,0.496-0.578,0.827-0.992,0.827c-0.166,0-0.248,0-0.248,0C286.631,256.278,285.225,255.865,283.986,255.121z
		 M287.209,217.34c1.324-0.413,2.811-0.661,4.299-0.744c0.58,0,1.076,0.414,1.076,1.075c0,0.579-0.414,0.992-1.076,0.992
		c-1.322,0.165-2.563,0.33-3.803,0.661c-0.082,0.083-0.248,0.083-0.248,0.083c-0.412,0-0.908-0.331-0.992-0.744
		C286.301,218.084,286.549,217.506,287.209,217.34z M292.418,255.039c1.322,0,2.729-0.166,3.885-0.496
		c0.58-0.166,1.076,0.165,1.324,0.744c0,0.578-0.248,1.074-0.744,1.322c-1.488,0.248-2.895,0.496-4.383,0.496
		c-0.66,0-0.992-0.413-0.992-1.075C291.344,255.535,291.84,255.039,292.418,255.039z M295.559,218.993
		c-0.66-0.165-0.99-0.578-0.908-1.157c0.082-0.578,0.66-0.909,1.24-0.826c1.488,0.33,2.811,0.744,4.217,1.405
		c0.494,0.248,0.66,0.909,0.412,1.405c-0.166,0.331-0.578,0.579-0.908,0.579c-0.166,0-0.414,0-0.414-0.166
		C298.039,219.737,296.717,219.324,295.559,218.993z M299.859,253.055c1.156-0.661,2.314-1.323,3.223-2.232
		c0.414-0.331,1.158-0.248,1.488,0.165c0.414,0.414,0.414,0.992-0.164,1.406c-0.992,0.991-2.232,1.818-3.473,2.479
		c-0.248,0.166-0.332,0.166-0.58,0.166c-0.246,0-0.742-0.166-0.908-0.496C299.197,253.964,299.445,253.385,299.859,253.055z
		 M302.504,222.301c-0.414-0.331-0.578-0.909-0.248-1.405c0.414-0.496,0.992-0.496,1.406-0.166c1.156,0.827,2.23,1.901,3.141,3.142
		c0.496,0.413,0.33,1.075-0.082,1.488c-0.166,0.083-0.496,0.165-0.744,0.165s-0.578-0.165-0.826-0.413
		C304.406,224.036,303.496,223.127,302.504,222.301z M305.729,247.929c0.826-0.992,1.404-2.149,1.984-3.39
		c0.164-0.496,0.744-0.744,1.322-0.496c0.496,0.166,0.744,0.827,0.578,1.323c-0.578,1.405-1.322,2.563-2.148,3.886
		c-0.166,0.165-0.58,0.413-0.828,0.413s-0.412-0.165-0.66-0.248C305.48,249.086,305.398,248.342,305.729,247.929z M307.299,228.501
		c-0.248-0.579,0-1.157,0.414-1.405c0.578-0.331,1.156-0.166,1.488,0.413c0.578,1.24,1.156,2.729,1.488,4.051
		c0.082,0.579-0.248,1.157-0.744,1.323c-0.166,0-0.166,0-0.332,0c-0.412,0-0.826-0.331-0.908-0.827
		C308.373,230.815,307.877,229.575,307.299,228.501z M308.869,240.819c0.248-1.24,0.332-2.646,0.332-3.969c0-0.248,0-0.496,0-0.826
		c0-0.579,0.412-0.992,1.074-1.158c0.496,0,1.074,0.414,1.074,1.075c0,0.248,0,0.661,0,0.909c0,1.571-0.166,2.977-0.496,4.382
		c-0.082,0.496-0.496,0.827-1.074,0.827c0,0,0,0-0.166,0C309.117,241.977,308.787,241.315,308.869,240.819z"/>
	<path fill="#FB503B" d="M324.996,217.588c0-0.496,0.412-1.074,1.074-1.074c0.496,0,1.074,0.578,1.074,1.074v4.299
		c0,0.662-0.578,1.075-1.074,1.075c-0.662,0-1.074-0.413-1.074-1.075V217.588z M324.996,226.187c0-0.579,0.412-1.158,1.074-1.158
		c0.496,0,1.074,0.579,1.074,1.158v4.216c0,0.661-0.578,1.075-1.074,1.075c-0.662,0-1.074-0.414-1.074-1.075V226.187z
		 M324.996,237.182v-0.083v-2.397c0-0.578,0.412-1.074,1.074-1.074h0.166c0.082-0.166,0.248-0.414,0.33-0.662
		c0.166-0.578,0.744-0.826,1.322-0.578c0.58,0.165,0.828,0.826,0.662,1.405c-0.826,1.818-1.24,3.059-1.406,3.555V239
		c0,0.579-0.578,0.992-1.074,0.992c-0.662,0-1.074-0.413-1.074-0.992V237.182z M324.996,243.217c0-0.579,0.412-1.075,1.074-1.075
		c0.496,0,1.074,0.496,1.074,1.075v4.299c0,0.578-0.578,1.074-1.074,1.074c-0.662,0-1.074-0.496-1.074-1.074V243.217z
		 M324.996,251.814c0-0.579,0.412-1.157,1.074-1.157c0.496,0,1.074,0.578,1.074,1.157v4.216c0,0.662-0.578,1.075-1.074,1.075
		c-0.662,0-1.074-0.413-1.074-1.075V251.814z M328.469,229.08c0.742-1.323,1.486-2.646,2.396-3.804
		c0.33-0.496,0.992-0.578,1.488-0.248c0.414,0.414,0.578,0.992,0.248,1.571c-0.826,1.157-1.57,2.314-2.232,3.39
		c-0.248,0.413-0.496,0.661-0.992,0.661c-0.166,0-0.33-0.165-0.496-0.248C328.303,230.237,328.221,229.493,328.469,229.08z
		 M333.76,221.887c1.074-0.909,2.314-1.901,3.555-2.811c0.496-0.165,1.156-0.083,1.488,0.496c0.33,0.413,0.082,1.157-0.332,1.405
		c-1.156,0.661-2.232,1.571-3.225,2.563c-0.164,0.165-0.578,0.248-0.744,0.248c-0.33,0-0.494-0.083-0.742-0.248
		C333.346,223.045,333.346,222.301,333.76,221.887z M341.447,217.34c1.406-0.413,2.895-0.661,4.465-0.826
		c0.578,0,1.074,0.578,1.074,1.074c0,0.662-0.414,1.075-1.074,1.075c-1.322,0.165-2.646,0.33-3.887,0.661
		c0,0-0.164,0.083-0.248,0.083c-0.496,0-0.992-0.331-1.074-0.827C340.537,218.084,340.785,217.506,341.447,217.34z"/>
</g>
<g>
	<path fill="#FB503B" d="M186.932,127.967v26.539h-24.859v20.324h-26.539v-20.324h-31.746c-12.43,0-24.188-7.055-24.188-20.66
		c0-5.711,2.352-11.086,5.711-15.621l37.625-49.719h39.137v59.461H186.932z M135.533,96.053l-24.02,31.914h24.02V96.053z"/>
	<path fill="#FB503B" d="M304.674,122.256c0,30.234-23.852,56.102-54.59,56.102s-54.758-25.867-54.758-56.102
		c0-30.402,24.02-56.102,54.758-56.102S304.674,91.854,304.674,122.256z M278.303,122.256c0-15.789-12.094-29.73-28.219-29.73
		s-28.387,13.941-28.387,29.73c0,15.621,12.094,29.563,28.387,29.563C266.209,151.818,278.303,137.877,278.303,122.256z"/>
	<path fill="#FB503B" d="M420.4,127.967v26.539h-24.859v20.324h-26.539v-20.324h-31.746c-12.43,0-24.188-7.055-24.188-20.66
		c0-5.711,2.352-11.086,5.711-15.621l37.625-49.719h39.137v59.461H420.4z M369.002,96.053l-24.02,31.914h24.02V96.053z"/>
</g>
<g>
</g>
<g>
</g>
<g>
</g>
<g>
</g>
<g>
</g>
<g>
</g>
</svg>
