<svg xmlns="http://www.w3.org/2000/svg" width="500" height="300" viewBox="0 0 500 300"><path d="M154.76 236.603c-.331 0-.579-.082-.744-.248-.579-.165-1.075-.661-.992-1.157.165-1.488.413-2.894.826-4.216.166-.662.744-.91 1.323-.744.495.082.743.744.661 1.24a14.24 14.24 0 0 0-.661 3.141h3.638c.661 0 1.074.414 1.074.992 0 .579-.413.992-1.074.992h-4.051zm-1.571 2.976c-.165-.661.248-1.157.909-1.157.496-.083 1.075.33 1.075.826.165 1.405.495 2.563.909 3.886.166.496-.166 1.075-.661 1.323h-.248c-.413 0-.909-.248-.992-.662a17.422 17.422 0 0 1-.992-4.216zm2.315-12.649c.744-1.405 1.57-2.479 2.563-3.637.33-.414.992-.414 1.405-.166.413.414.496 1.075.083 1.571-.744.909-1.488 1.984-2.315 3.142 0 .413-.496.661-.743.661-.248 0-.414-.165-.58-.248-.496-.248-.744-.827-.413-1.323zm.579 20.834c-.33-.579-.248-1.157.248-1.488.578-.248 1.157-.083 1.488.331.578 1.157 1.405 2.149 2.397 3.142.413.413.331 1.074-.083 1.487-.165.166-.413.248-.661.248s-.661-.082-.827-.248c-.909-1.075-1.901-2.232-2.562-3.472zm5.209-27.365c1.156-.91 2.479-1.571 3.803-2.232.496-.248 1.156 0 1.322.496.248.578 0 1.157-.496 1.405-1.24.496-2.397 1.24-3.473 1.901a.75.75 0 0 1-.578.248c-.33 0-.578-.083-.826-.413-.332-.495-.249-1.157.248-1.405zm.826 33.565c-.578-.248-.662-.909-.33-1.405.33-.579.908-.661 1.487-.331a10.929 10.929 0 0 0 3.39 1.736c.496.248.826.909.578 1.323-.082.495-.496.743-.908.743-.084 0-.166-.082-.414-.082-1.323-.496-2.646-1.075-3.803-1.984zm.909-17.361c-.579 0-1.075-.413-1.075-.992 0-.578.496-.992 1.075-.992h4.134c.661 0 1.074.414 1.074.992 0 .579-.413.992-1.074.992h-4.134zm6.2-19.676c1.158-.165 2.15-.331 3.307-.331.331 0 .744 0 1.075.166.579 0 .992.496.992.992-.083.661-.496 1.074-1.157 1.074-.248-.165-.579-.165-.91-.165-.992 0-1.983.165-2.893.33h-.248c-.496 0-.91-.413-.992-.826-.083-.661.33-1.157.826-1.24zm.166 38.938c0-.578.496-.992 1.074-.992.662.166 1.406.166 2.066.166.662 0 1.323 0 1.819-.166.661 0 1.075.414 1.075.992.165.579-.248 1.157-.827 1.157-.661.083-1.323.083-2.067.083-.826 0-1.57 0-2.396-.083-.496-.165-.91-.661-.744-1.157zm1.901-19.262c-.496 0-.992-.413-.992-.992 0-.578.496-.992.992-.992h4.134c.661 0 1.074.414 1.074.992 0 .579-.413.992-1.074.992h-4.134zm6.035-17.196c-.496-.166-.826-.744-.578-1.24.082-.661.744-.909 1.24-.744 1.405.496 2.729.992 4.051 1.653.496.331.578.992.414 1.488-.248.331-.662.496-.91.496s-.496 0-.578-.083c-1.159-.578-2.399-1.157-3.639-1.57zm.827 34.722c1.24-.413 2.397-1.074 3.556-1.735.496-.248 1.156-.166 1.404.413.331.331.166.992-.248 1.322-1.322.744-2.645 1.406-3.968 1.901h-.413c-.414 0-.826-.165-.992-.578-.166-.579.166-1.157.661-1.323zm1.405-17.526c-.496 0-.992-.413-.992-.992 0-.578.496-.992.992-.992h4.217c.661 0 .992.414.992.992 0 .579-.331.992-.992.992h-4.217zm4.465-13.31a1.047 1.047 0 0 1 0-1.488c.413-.413 1.074-.496 1.57-.083.992.992 1.902 2.067 2.894 3.307.248.414.165 1.158-.413 1.488-.166.083-.414.166-.578.166-.331 0-.579-.166-.827-.496-.745-1.076-1.572-2.068-2.646-2.894zm.661 26.62c.909-.909 1.819-1.984 2.48-3.142.331-.331.909-.579 1.487-.248.414.248.579.909.331 1.405-.909 1.323-1.818 2.397-2.811 3.473-.083.248-.413.33-.744.33-.248 0-.496-.082-.744-.33a1.05 1.05 0 0 1 .001-1.488zm3.224-13.31c-.496 0-.991-.413-.991-.992 0-.578.495-.992.991-.992h3.143c.496 0 1.074.414 1.074.992 0 .579-.578.992-1.074.992h-3.143zm.744-7.028c-.33-.495 0-1.074.496-1.322s1.158 0 1.406.661c.496 1.157.909 2.646 1.157 4.134.165.496-.165 1.075-.744 1.24h-.248c-.413 0-.909-.413-1.075-.827-.165-1.405-.578-2.646-.992-3.886zm15.794-11.987c0-.496.413-1.074 1.075-1.074.496 0 1.074.578 1.074 1.074v4.299c0 .662-.578 1.075-1.074 1.075-.662 0-1.075-.413-1.075-1.075v-4.299zm0 8.599c0-.579.413-1.158 1.075-1.158.496 0 1.074.579 1.074 1.158v4.216c0 .661-.578 1.075-1.074 1.075-.662 0-1.075-.414-1.075-1.075v-4.216zm0 10.995v-2.48c0-.578.413-1.074 1.075-1.074h.165c.083-.166.248-.414.331-.662.165-.578.744-.826 1.323-.578.578.165.826.826.66 1.405-.826 1.818-1.239 3.059-1.405 3.555V239c0 .579-.578.992-1.074.992-.662 0-1.075-.413-1.075-.992v-1.818zm0 6.035c0-.579.413-1.075 1.075-1.075.496 0 1.074.496 1.074 1.075v4.299c0 .578-.578 1.074-1.074 1.074-.662 0-1.075-.496-1.075-1.074v-4.299zm0 8.597c0-.579.413-1.157 1.075-1.157.496 0 1.074.578 1.074 1.157v4.216c0 .662-.578 1.075-1.074 1.075-.662 0-1.075-.413-1.075-1.075v-4.216zm3.472-22.734c.744-1.323 1.488-2.646 2.398-3.804.33-.496.992-.578 1.488-.248.412.414.578.992.248 1.571a57.304 57.304 0 0 0-2.232 3.39c-.248.413-.496.661-.992.661-.166 0-.332-.165-.496-.248-.578-.165-.662-.909-.414-1.322zm5.291-7.193a66.59 66.59 0 0 1 3.555-2.811c.496-.165 1.158-.083 1.488.496.33.413.082 1.157-.33 1.405-1.158.661-2.232 1.571-3.225 2.563-.166.165-.578.248-.744.248-.33 0-.496-.083-.744-.248-.412-.495-.412-1.239 0-1.653zm7.69-4.547c1.404-.413 2.893-.661 4.463-.826.58 0 1.076.578 1.076 1.074 0 .662-.414 1.075-1.076 1.075-1.322.165-2.645.33-3.885.661 0 0-.166.083-.248.083-.496 0-.992-.331-1.074-.827-.166-.496.082-1.074.744-1.24zm19.842.248c0-.496.414-1.074 1.076-1.074.496 0 1.074.578 1.074 1.074v4.299c0 .662-.578 1.075-1.074 1.075-.662 0-1.076-.413-1.076-1.075v-4.299zm0 8.599c0-.579.414-1.158 1.076-1.158.496 0 1.074.579 1.074 1.158v4.216c0 .661-.578 1.075-1.074 1.075-.662 0-1.076-.414-1.076-1.075v-4.216zm0 10.995v-2.48c0-.578.414-1.074 1.076-1.074h.164c.084-.166.248-.414.332-.662.164-.578.742-.826 1.322-.578.578.165.826.826.66 1.405a34.33 34.33 0 0 0-1.404 3.555V239c0 .579-.578.992-1.074.992-.662 0-1.076-.413-1.076-.992v-1.818zm0 6.035c0-.579.414-1.075 1.076-1.075.496 0 1.074.496 1.074 1.075v4.299c0 .578-.578 1.074-1.074 1.074-.662 0-1.076-.496-1.076-1.074v-4.299zm0 8.597c0-.579.414-1.157 1.076-1.157.496 0 1.074.578 1.074 1.157v4.216c0 .662-.578 1.075-1.074 1.075-.662 0-1.076-.413-1.076-1.075v-4.216zm3.472-22.734c.744-1.323 1.488-2.646 2.398-3.804.33-.496.992-.578 1.486-.248.414.414.58.992.248 1.571a58.25 58.25 0 0 0-2.23 3.39c-.248.413-.496.661-.992.661-.166 0-.332-.165-.496-.248-.58-.165-.662-.909-.414-1.322zm5.291-7.193a67.065 67.065 0 0 1 3.557-2.811c.496-.165 1.156-.083 1.488.496.33.413.082 1.157-.332 1.405-1.156.661-2.232 1.571-3.225 2.563-.166.165-.578.248-.744.248-.33 0-.496-.083-.744-.248-.414-.495-.414-1.239 0-1.653zm7.69-4.547c1.406-.413 2.895-.661 4.465-.826.578 0 1.074.578 1.074 1.074 0 .662-.414 1.075-1.074 1.075-1.322.165-2.646.33-3.887.661 0 0-.164.083-.248.083-.496 0-.992-.331-1.074-.827-.166-.496.082-1.074.744-1.24zm15.875 19.511c0-1.24.084-2.563.414-3.803.082-.496.66-.992 1.156-.909.662.165.91.661.828 1.322-.166 1.157-.332 2.232-.332 3.39v.414c0 .661-.412 1.157-.908 1.157h-.084a1.094 1.094 0 0 1-1.074-1.075v-.496zm.496 4.878c-.082-.579.33-1.075.826-1.24.496-.248 1.158.165 1.24.744a24.711 24.711 0 0 0 1.24 3.721c.332.495 0 1.157-.496 1.322-.082.165-.164.165-.412.165-.414 0-.662-.248-.91-.661-.661-1.241-1.074-2.646-1.488-4.051zm1.075-12.897c.662-1.323 1.24-2.646 2.068-3.804.33-.578 1.074-.578 1.488-.33.496.33.578.909.248 1.488-.662.991-1.324 2.149-1.82 3.389-.248.414-.578.744-.992.744-.164 0-.33-.082-.33-.082-.578-.248-.91-.827-.662-1.405zm2.728 20.668c-.496-.414-.33-.992.166-1.406.414-.33.992-.247 1.406.166.742 1.074 1.734 1.984 2.727 2.976.414.248.414.91.166 1.406-.248.165-.578.33-.91.33-.164 0-.412-.165-.578-.165-1.159-.993-2.149-1.985-2.977-3.307zm2.233-27.778c1.074-1.074 2.232-1.901 3.555-2.646.414-.248 1.158-.083 1.322.331.332.496.084 1.157-.33 1.488-1.156.578-2.148 1.405-3.225 2.231a.713.713 0 0 1-.578.331c-.33 0-.662-.083-.826-.331a1.023 1.023 0 0 1 .082-1.404zm4.382 33.399c-.58-.248-.744-.826-.58-1.322.332-.496.992-.744 1.488-.496 1.158.578 2.398.992 3.639 1.322.66.083.992.662.826 1.24-.082.496-.578.827-.992.827h-.248c-1.488-.414-2.894-.827-4.133-1.571zm3.223-37.781c1.324-.413 2.811-.661 4.299-.744.58 0 1.076.414 1.076 1.075 0 .579-.414.992-1.076.992-1.322.165-2.563.33-3.803.661-.082.083-.248.083-.248.083-.412 0-.908-.331-.992-.744-.164-.579.084-1.157.744-1.323zm5.209 37.699c1.322 0 2.729-.166 3.885-.496.58-.166 1.076.165 1.324.744 0 .578-.248 1.074-.744 1.322-1.488.248-2.895.496-4.383.496-.66 0-.992-.413-.992-1.075-.164-.495.332-.991.91-.991zm3.141-36.046c-.66-.165-.99-.578-.908-1.157.082-.578.66-.909 1.24-.826 1.488.33 2.811.744 4.217 1.405.494.248.66.909.412 1.405-.166.331-.578.579-.908.579-.166 0-.414 0-.414-.166-1.159-.496-2.481-.909-3.639-1.24zm4.3 34.062c1.156-.661 2.314-1.323 3.223-2.232.414-.331 1.158-.248 1.488.165.414.414.414.992-.164 1.406-.992.991-2.232 1.818-3.473 2.479-.248.166-.332.166-.58.166-.246 0-.742-.166-.908-.496-.248-.579 0-1.158.414-1.488zm2.645-30.754c-.414-.331-.578-.909-.248-1.405.414-.496.992-.496 1.406-.166 1.156.827 2.23 1.901 3.141 3.142.496.413.33 1.075-.082 1.488-.166.083-.496.165-.744.165s-.578-.165-.826-.413c-.745-1.076-1.655-1.985-2.647-2.811zm3.225 25.628c.826-.992 1.404-2.149 1.984-3.39.164-.496.744-.744 1.322-.496.496.166.744.827.578 1.323-.578 1.405-1.322 2.563-2.148 3.886-.166.165-.58.413-.828.413s-.412-.165-.66-.248c-.497-.331-.579-1.075-.248-1.488zm1.57-19.428c-.248-.579 0-1.157.414-1.405.578-.331 1.156-.166 1.488.413.578 1.24 1.156 2.729 1.488 4.051.082.579-.248 1.157-.744 1.323h-.332c-.412 0-.826-.331-.908-.827a16.84 16.84 0 0 0-1.406-3.555zm1.57 12.318c.248-1.24.332-2.646.332-3.969v-.826c0-.579.412-.992 1.074-1.158.496 0 1.074.414 1.074 1.075v.909c0 1.571-.166 2.977-.496 4.382-.082.496-.496.827-1.074.827h-.166c-.496-.082-.826-.744-.744-1.24zm16.127-23.231c0-.496.412-1.074 1.074-1.074.496 0 1.074.578 1.074 1.074v4.299c0 .662-.578 1.075-1.074 1.075-.662 0-1.074-.413-1.074-1.075v-4.299zm0 8.599c0-.579.412-1.158 1.074-1.158.496 0 1.074.579 1.074 1.158v4.216c0 .661-.578 1.075-1.074 1.075-.662 0-1.074-.414-1.074-1.075v-4.216zm0 10.995v-2.48c0-.578.412-1.074 1.074-1.074h.166c.082-.166.248-.414.33-.662.166-.578.744-.826 1.322-.578.58.165.828.826.662 1.405-.826 1.818-1.24 3.059-1.406 3.555V239c0 .579-.578.992-1.074.992-.662 0-1.074-.413-1.074-.992v-1.818zm0 6.035c0-.579.412-1.075 1.074-1.075.496 0 1.074.496 1.074 1.075v4.299c0 .578-.578 1.074-1.074 1.074-.662 0-1.074-.496-1.074-1.074v-4.299zm0 8.597c0-.579.412-1.157 1.074-1.157.496 0 1.074.578 1.074 1.157v4.216c0 .662-.578 1.075-1.074 1.075-.662 0-1.074-.413-1.074-1.075v-4.216zm3.473-22.734c.742-1.323 1.486-2.646 2.396-3.804.33-.496.992-.578 1.488-.248.414.414.578.992.248 1.571a59.375 59.375 0 0 0-2.232 3.39c-.248.413-.496.661-.992.661-.166 0-.33-.165-.496-.248-.578-.165-.66-.909-.412-1.322zm5.291-7.193a66.59 66.59 0 0 1 3.555-2.811c.496-.165 1.156-.083 1.488.496.33.413.082 1.157-.332 1.405-1.156.661-2.232 1.571-3.225 2.563-.164.165-.578.248-.744.248-.33 0-.494-.083-.742-.248-.414-.495-.414-1.239 0-1.653zm7.687-4.547c1.406-.413 2.895-.661 4.465-.826.578 0 1.074.578 1.074 1.074 0 .662-.414 1.075-1.074 1.075-1.322.165-2.646.33-3.887.661 0 0-.164.083-.248.083-.496 0-.992-.331-1.074-.827-.166-.496.082-1.074.744-1.24zm-154.515-89.373v26.539h-24.859v20.324h-26.539v-20.324h-31.746c-12.43 0-24.188-7.055-24.188-20.66 0-5.711 2.352-11.086 5.711-15.621l37.625-49.719h39.137v59.461h24.859zm-51.399-31.914l-24.02 31.914h24.02V96.053zm169.141 26.203c0 30.234-23.852 56.102-54.59 56.102s-54.758-25.867-54.758-56.102c0-30.402 24.02-56.102 54.758-56.102s54.59 25.7 54.59 56.102zm-26.371 0c0-15.789-12.094-29.73-28.219-29.73s-28.387 13.941-28.387 29.73c0 15.621 12.094 29.563 28.387 29.563 16.125-.001 28.219-13.942 28.219-29.563zm142.097 5.711v26.539h-24.859v20.324h-26.539v-20.324h-31.746c-12.43 0-24.188-7.055-24.188-20.66 0-5.711 2.352-11.086 5.711-15.621l37.625-49.719h39.137v59.461H420.4zm-51.398-31.914l-24.02 31.914h24.02V96.053z" fill="#FB503B"/></svg>