<svg xmlns="http://www.w3.org/2000/svg" width="650mm" height="410mm" viewBox="0 0 2303.1496 1452.7559"><path fill="#22313f" d="M184.28 53.265h1931.238v1274.919H184.281z"/><path fill="#59abe3" d="M243.93 197.293h1810.536V1215.72H243.93z"/><path d="M66.649 1313.194c-.88 138.019 105.421 100.059 115.046 105.615h1935.952c69.699-.498 114.1-18.072 114.1-105.615z" fill="#34495e"/><path d="M887.015 1346.262v21.371c0 18.038 14.442 18.973 19.53 18.973h483.642c13.843 1.002 21.091-5.579 21.091-15.11v-25.234z" fill="#67809f"/><path d="M243.93 1215.831h1810.536V197.405z" opacity=".365" fill="#81cfe0"/><path d="M346.476 324.261v41.914h1240.971v-39.658c0-13.745-13.601-15.36-14.56-15.36H358.743c-13.322 0-12.055 12.35-12.259 13.104z" fill="#ecf0f1"/><path d="M433.457 319.418c4.375 0 7.785 3.644 7.785 8.012v22.865a7.695 7.695 0 0 1-7.785 7.778h-34.65v-38.655h34.65z" opacity=".416" fill="#d2d7d3" stroke="#6c7a89" stroke-width=".754"/><path fill="#ecf0f1" d="M346.476 361.506h5.333v709.134h-5.333zm1235.638-6.79h5.333v715.931h-5.333z"/><path fill="#ecf0f1" d="M1587.447 1065.306v5.334H346.476v-5.334z"/><path d="M364.264 319.418c-4.36 0-7.77 3.644-7.77 8.012v22.865a7.695 7.695 0 0 0 7.77 7.778h34.657v-38.655h-34.657zm93.364 0c-4.376 0-7.786 3.644-7.786 8.012v22.865a7.695 7.695 0 0 0 7.786 7.778h24.276a7.695 7.695 0 0 0 7.785-7.77V327.43c0-4.368-3.417-8.02-7.785-8.02h-24.276z" opacity=".416" fill="#d2d7d3" stroke="#6c7a89" stroke-width=".754"/><path d="M466.74 332.446c.929-.452 2.188-.814 2.784-.792.242 0 .49-.075.559-.113a4.557 4.557 0 0 0 .113-1.395v-1.283l1.939 1.886 1.953 1.886-1.886 1.954-1.893 1.946v-3.04l-.679.075a5.318 5.318 0 0 0-4.15 3.018 5.816 5.816 0 0 0-.112 4.02c.467 1.163 1.607 2.264 2.776 2.694a5.786 5.786 0 0 0 4.013-.226 4.096 4.096 0 0 0 1.615-1.283c1.66-1.923 1.735-4.24.21-6.548-.225-.354-.21-.4.408-1.033l.649-.68.362.476c.558.717 1.132 1.833 1.358 2.64.317 1.094.226 2.965-.196 4.21-.362 1.056-.453 1.184-1.645 2.414-1.207 1.252-1.282 1.335-2.414 1.72a6.918 6.918 0 0 1-7.272-1.464 6.888 6.888 0 0 1-1.675-7.22c.347-1.04.498-1.282 1.449-2.323.792-.92 1.23-1.26 1.818-1.539z" fill="#6c7a89"/><path d="M504.777 319.418c-4.375 0-7.785 3.644-7.785 8.012v22.865a7.695 7.695 0 0 0 7.785 7.778h24.276a7.695 7.695 0 0 0 7.786-7.77V327.43c0-4.368-3.418-8.02-7.786-8.02h-24.276z" opacity=".416" fill="#d2d7d3" stroke="#6c7a89" stroke-width=".754"/><path d="M507.598 332.62v11.225h-1.29v1.29h2.588V333.91h14.032v11.225h2.587v-1.29h-1.29V332.62h-16.627z" fill="#6c7a89"/><path d="M515.142 335.449v3.53h-3.296v1.419h3.296v3.538h1.419v-3.546h3.538v-1.41h-3.538v-3.539h-1.419z" fill="#6c7a89"/><path d="M692.333 319.418c-4.367 0-7.777 3.644-7.777 8.012v22.865a7.695 7.695 0 0 0 7.777 7.778h555.05a7.695 7.695 0 0 0 7.778-7.77V327.43c0-4.368-3.41-8.02-7.778-8.02H695.872z" opacity=".416" fill="#d2d7d3" stroke="#6c7a89" stroke-width=".754"/><path fill="#34495e" d="M1582.114 366.175v699.131H351.809v-699.13z"/><path fill="#f9bf3b" d="M583.541 578.704h165.966v444.064H583.54z"/><path fill="#22a7f0" d="M1353.003 396.737v165.966H580.878V396.737z"/><path fill="#2ecc71" d="M767.574 578.704h584.713v441.393H767.574z"/><g transform="translate(-52748.172 -18952.541) scale(7.5439)"><circle r="3.5" cy="2530.362" cx="7142" transform="translate(363.318 126.565) scale(.9495)" fill="#6c7a89"/><circle r="3.5" cy="2530.362" cx="7142" transform="translate(2314.835 817.974) scale(.67625)" fill="#bdc3c7"/></g><path d="M1062.957 444.514c-13.326 0-12.055 12.442-12.26 13.202v522.331h915.577v-520.21c0-13.746-13.424-15.324-14.38-15.323zm-6.837 54.929h904.968v475.182H1056.12z" fill="#ecf0f1"/><path fill="#34495e" d="M1960.605 499.286v475.092h-904.906V499.286z"/><path fill="#2ecc71" d="M1097.613 519.15h537.405v13.201h-537.405zm0 28.29h658.205v13.2h-658.205zm0 28.289h602.448v13.202h-602.448zm0 103.728h537.405v-13.202h-537.405zm0-28.289h658.205v-13.202h-658.205zm0-28.29h602.448v-13.202h-602.448zm0 143.334h419.81V753.01h-419.81zm0-28.29h514.177v-13.201h-514.177zm0-28.289h470.619V696.43h-470.619z"/><path fill="#22313f" d="M1078.98 499.286v472.422h-23.28V499.286z"/></svg>