<svg viewBox="0 0 576.47668 733.99939" xmlns="http://www.w3.org/2000/svg"><path d="M489.708 158.561l-23.232-15.864-26.979 7.971 7.908-26.997-15.917-23.195 28.12-.821 17.14-22.307 9.471 26.49 26.511 9.409-22.266 17.193-.756 28.121z" fill="#969696" stroke="#c8c8c8" stroke-width="15"/><g stroke="#000"><path d="M906.08 758.485h240.697a45.67 45.67 0 0 1 45.671 45.671v4.938a45.67 45.67 0 0 1-45.67 45.67H906.08a45.67 45.67 0 0 1-45.671-45.67v-4.938a45.67 45.67 0 0 1 45.67-45.67" fill="#323232" stroke-width="12.961" transform="matrix(.55004 -.63736 .75706 .65334 -715.557 392.17)"/><path d="M910.836 777.656h231.186a27.484 27.484 0 0 1 27.483 27.483v2.972a27.484 27.484 0 0 1-27.483 27.483H910.836a27.484 27.484 0 0 1-27.484-27.483v-2.972a27.484 27.484 0 0 1 27.484-27.483" stroke-width="9.334" transform="matrix(.55004 -.63736 .75706 .65334 -715.557 392.17)"/></g><g stroke="#000"><path d="M157.797 434.192l-54.182 234.522a45.671 45.671 0 0 1 34.219 54.779l4.81 1.111a45.671 45.671 0 0 1 54.78-34.218l54.181-234.521a45.671 45.671 0 0 1-34.218-54.78l-4.811-1.111a45.671 45.671 0 0 1-54.78 34.218" fill="#323232" stroke-width="12.961"/><path d="M175.404 443.141l-52.04 225.254a27.484 27.484 0 0 1 20.592 32.965l2.895.669a27.484 27.484 0 0 1 32.965-20.592l52.04-225.254a27.484 27.484 0 0 1-20.592-32.965l-2.895-.669a27.484 27.484 0 0 1-32.965 20.592" stroke-width="9.334"/></g><g stroke="#000"><path d="M290.805 440.406l93.716 221.704a45.67 45.67 0 0 1-24.285 59.849l-4.548 1.922a45.67 45.67 0 0 1-59.849-24.285l-93.716-221.704a45.67 45.67 0 0 1 24.285-59.849l4.548-1.922a45.67 45.67 0 0 1 59.85 24.285" fill="#323232" stroke-width="12.961"/><path d="M275 452.25l90.011 212.943a27.484 27.484 0 0 1-14.614 36.016l-2.736 1.157a27.484 27.484 0 0 1-36.016-14.614l-90.012-212.943a27.484 27.484 0 0 1 14.614-36.016l2.737-1.157a27.484 27.484 0 0 1 36.015 14.614" stroke-width="9.334"/></g><path d="M574.286 522.362c0 101.778-85.706 184.286-191.429 184.286S191.43 624.14 191.43 522.362s85.705-184.286 191.428-184.286 191.429 82.508 191.429 184.286z" fill="#323232" stroke="#000" stroke-width="25.043" transform="matrix(1.00746 0 0 .95401 -147.253 -100.808)"/><path d="M405.602 397.531c0 84.151-74.832 152.37-167.142 152.37S71.318 481.682 71.318 397.53 146.15 245.162 238.46 245.162s167.142 68.218 167.142 152.37z"/><path d="M574.286 522.362c0 101.778-85.706 184.286-191.429 184.286S191.43 624.14 191.43 522.362s85.705-184.286 191.428-184.286 191.429 82.508 191.429 184.286z" fill="#323232" stroke="#000" stroke-width="25.043" transform="matrix(.78358 0 0 .81395 -61.538 -265.179)"/><path d="M368.459 160.002c0 71.797-58.203 130-130 130s-129.998-58.203-129.998-130 58.202-130 129.999-130 129.999 58.203 129.999 130z"/><path d="M335.177 128.163c0 31.755-43.3 57.498-96.715 57.498s-96.715-25.743-96.715-57.498 43.3-57.499 96.715-57.499 96.715 25.743 96.715 57.499z" fill="#cda36d" stroke="#bd8741" stroke-width="11.676"/><path d="M163.897 128.162h58.084m32.961 0h58.084" fill="none" stroke="#000" stroke-width="15"/><g stroke="#000"><path d="M906.08 758.485h240.697a45.67 45.67 0 0 1 45.671 45.671v4.938a45.67 45.67 0 0 1-45.67 45.67H906.08a45.67 45.67 0 0 1-45.671-45.67v-4.938a45.67 45.67 0 0 1 45.67-45.67" fill="#323232" stroke-width="12.961" transform="matrix(.8138 .21566 -.25616 .96664 -485.178 -615.878)"/><path d="M910.836 777.656h231.186a27.484 27.484 0 0 1 27.483 27.483v2.972a27.484 27.484 0 0 1-27.483 27.483H910.836a27.484 27.484 0 0 1-27.484-27.483v-2.972a27.484 27.484 0 0 1 27.484-27.483" stroke-width="9.334" transform="matrix(.8138 .21566 -.25616 .96664 -485.178 -615.878)"/></g></svg>