<?xml version="1.0" encoding="UTF-8" standalone="no"?>
<svg viewBox="0 0 576.47668 733.99939" xmlns="http://www.w3.org/2000/svg">
<g transform="translate(-102.96698,-414.64791)">
<path d="m735.39104,925.08298-25.70195-11.43678-25.11022,12.68335 2.93469-27.97816-19.82207-19.96186 27.51568-5.85469 12.8595-25.02046 14.07095,24.35978 27.76968,4.49836-18.81936,20.90985 4.3031,27.80061z" fill="#969696" stroke="#c8c8c8" stroke-width="15" transform="matrix(.98376,.17947,-.17947,.98376,35.25124,-468.83118)"/>
<g transform="matrix(.55004,-.63736,.75706,.65334,-612.58968,806.81747)">
<path d="m906.07978,758.48541h240.69766a45.67084,45.67084 0 0,1 45.67084,45.67084v4.93739a45.67084,45.67084 0 0,1 -45.67084,45.67084h-240.69766a45.67084,45.67084 0 0,1 -45.67084-45.67084v-4.93739a45.67084,45.67084 0 0,1 45.67084-45.67084" fill="#323232" stroke="#000" stroke-width="12.96064"/>
<path d="m910.83562,777.65576h231.18594a27.48357,27.48357 0 0,1 27.48357,27.48357v2.97121a27.48357,27.48357 0 0,1 -27.48357,27.48357h-231.18594a27.48357,27.48357 0 0,1 -27.48357-27.48357v-2.97121a27.48357,27.48357 0 0,1 27.48357-27.48357" stroke="#000" stroke-width="9.33358"/>
</g>
<g transform="matrix(-.2251,.97434,.97434,.2251,-274.30062,-204.72476)">
<path d="m906.07978,758.48541h240.69766a45.67084,45.67084 0 0,1 45.67084,45.67084v4.93739a45.67084,45.67084 0 0,1 -45.67084,45.67084h-240.69766a45.67084,45.67084 0 0,1 -45.67084-45.67084v-4.93739a45.67084,45.67084 0 0,1 45.67084-45.67084" fill="#323232" stroke="#000" stroke-width="12.96064"/>
<path d="m910.83562,777.65576h231.18594a27.48357,27.48357 0 0,1 27.48357,27.48357v2.97121a27.48357,27.48357 0 0,1 -27.48357,27.48357h-231.18594a27.48357,27.48357 0 0,1 -27.48357-27.48357v-2.97121a27.48357,27.48357 0 0,1 27.48357-27.48357" stroke="#000" stroke-width="9.33358"/>
</g>
<g transform="matrix(.38935,.92109,-.92109,.38935,739.62324,-274.84359)">
<path d="m906.07978,758.48541h240.69766a45.67084,45.67084 0 0,1 45.67084,45.67084v4.93739a45.67084,45.67084 0 0,1 -45.67084,45.67084h-240.69766a45.67084,45.67084 0 0,1 -45.67084-45.67084v-4.93739a45.67084,45.67084 0 0,1 45.67084-45.67084" fill="#323232" stroke="#000" stroke-width="12.96064"/>
<path d="m910.83562,777.65576h231.18594a27.48357,27.48357 0 0,1 27.48357,27.48357v2.97121a27.48357,27.48357 0 0,1 -27.48357,27.48357h-231.18594a27.48357,27.48357 0 0,1 -27.48357-27.48357v-2.97121a27.48357,27.48357 0 0,1 27.48357-27.48357" stroke="#000" stroke-width="9.33358"/>
</g>
<path d="m574.28572,522.36218c0,101.7782-85.70549,184.28572-191.42857,184.28572s-191.42858-82.50752-191.42858-184.28572 85.7055-184.28572 191.42858-184.28572 191.42857,82.50753 191.42857,184.28572z" fill="#323232" stroke="#000" stroke-width="25.04309" transform="matrix(1.00746,0,0,.95401,-44.28572,313.83956)"/>
<path d="m574.28572,522.36218c0,101.7782-85.70549,184.28572-191.42857,184.28572s-191.42858-82.50752-191.42858-184.28572 85.7055-184.28572 191.42858-184.28572 191.42857,82.50753 191.42857,184.28572z" transform="matrix(.87313,0,0,.82681,7.14285,380.28488)"/>
<g transform="translate(0,18)">
<path d="m574.28572,522.36218c0,101.7782-85.70549,184.28572-191.42857,184.28572s-191.42858-82.50752-191.42858-184.28572 85.7055-184.28572 191.42858-184.28572 191.42857,82.50753 191.42857,184.28572z" fill="#323232" stroke="#000" stroke-width="25.04309" transform="matrix(.78358,0,0,.81395,41.42857,131.4694)"/>
<path d="m574.28572,522.36218c0,101.7782-85.70549,184.28572-191.42857,184.28572s-191.42858-82.50752-191.42858-184.28572 85.7055-184.28572 191.42858-184.28572 191.42857,82.50753 191.42857,184.28572z" transform="matrix(.6791,0,0,.70543,81.42857,188.15987)"/>
<path d="m434.87069,524.81c0,27.19723-37.08538,49.24494-82.83251,49.24494s-82.83251-22.04771-82.83251-49.24494 37.08537-49.24494 82.83251-49.24494 82.83251,22.04771 82.83251,49.24494z" fill="#cda36d" stroke="#bd8741" stroke-width="10" transform="matrix(1.1676,0,0,1.1676,-69.61069,-87.95739)"/>
<path d="m266.86445,524.80997h58.08377" fill="none" stroke="#000" stroke-width="15"/>
<path d="m357.90889,524.80997h58.08377" fill="none" stroke="#000" stroke-width="15"/>
</g>
<g transform="matrix(.8138,.21566,-.25616,.96664,-382.21145,-201.23)">
<path d="m906.07978,758.48541h240.69766a45.67084,45.67084 0 0,1 45.67084,45.67084v4.93739a45.67084,45.67084 0 0,1 -45.67084,45.67084h-240.69766a45.67084,45.67084 0 0,1 -45.67084-45.67084v-4.93739a45.67084,45.67084 0 0,1 45.67084-45.67084" fill="#323232" stroke="#000" stroke-width="12.96064"/>
<path d="m910.83562,777.65576h231.18594a27.48357,27.48357 0 0,1 27.48357,27.48357v2.97121a27.48357,27.48357 0 0,1 -27.48357,27.48357h-231.18594a27.48357,27.48357 0 0,1 -27.48357-27.48357v-2.97121a27.48357,27.48357 0 0,1 27.48357-27.48357" stroke="#000" stroke-width="9.33358"/>
</g>
</g>
</svg>
